<svg version="1.1" id="Layer_1" xmlns="http://www.w3.org/2000/svg" xmlns:xlink="http://www.w3.org/1999/xlink" x="0px" y="0px"
	 viewBox="0 0 922.39 860.43" style="enable-background:new 0 0 922.39 860.43;" xml:space="preserve">
	<path fill="currentColor" d="M601.61,824.81c-52.51,22.99-110.44,35.62-171.38,35.62C192.72,860.43,0,667.7,0,430.22
		C0,192.47,192.72,0,430.23,0c60.94,0,118.61,12.63,171.14,35.4c-39.39,28.12-74.32,62.14-103.63,100.56
		c-21.81-4.91-44.31-7.51-67.51-7.51c-166.71,0-301.75,135.09-301.75,301.77c0,166.46,135.04,301.73,301.75,301.73
		c10.79,0,21.57-0.46,31.89-1.65c16.86,16.44,34.92,31.69,54.15,45.29c25.32,18.27,52.99,33.98,82.07,46.89
		C599.51,823.17,600.45,824.08,601.61,824.81z M917.23,307.41H774.69c4.92,22.25,7.5,45.7,7.5,69.6
		c0,112.56-56.28,211.75-142.56,271.05C553.35,588.75,497.09,489.57,497.09,377c0-23.89,2.58-47.34,7.5-69.6H362.05
		c-3.51,22.71-5.16,45.92-5.16,69.6c0,158.03,77.84,297.56,197.41,382.87c26.26,19,55.1,35.17,85.34,48.32
		c30.26-13.15,59.09-29.31,85.36-48.32c119.57-85.32,197.4-224.84,197.4-382.87C922.39,353.33,920.76,330.12,917.23,307.41z"/>
</svg>